<?xml version="1.0" encoding="utf-8"?>
<!-- Generator: Adobe Illustrator 26.0.1, SVG Export Plug-In . SVG Version: 6.00 Build 0)  -->
<svg version="1.1" id="Layer_1" xmlns="http://www.w3.org/2000/svg" xmlns:xlink="http://www.w3.org/1999/xlink" x="0px" y="0px"
	 viewBox="0 0 443.2 319.7" style="enable-background:new 0 0 443.2 319.7;" xml:space="preserve">
<style type="text/css">
	.st0{fill:#4DC8EB;}
	.st1{fill:#FFFFFF;}
	.st2{fill:#E7087C;}
	.st3{fill:#00AED3;}
	.st4{fill:#0294B3;}
	.st5{stroke:#000000;stroke-miterlimit:10;}
	.st6{fill:#F99C1C;}
	.st7{fill:#EF3F5D;}
	.st8{fill:#4685C5;}
	.st9{fill:#DB6A2F;}
</style>
<g>
	<g>
		<g>
			<g>
				<path class="st1" d="M339.9,66.2c0,7.6,0.3,14.3-0.2,20.9c-0.1,1.5-3,3.8-4.6,3.9c-11,0.2-19,5.5-26.1,13.2
					c-25.7,28-51.3,56.2-77.2,84c-25.3,27.2-68.2,30.9-98.4,8.8c-0.7-0.5-1.5-0.8-3.4-1.9c0,19.9,0,38.9,0,58.9
					c-8.5,0-16,0.1-23.5-0.2c-1.1,0-2.6-2-3-3.4c-0.5-1.9-0.2-4-0.2-6c0-56.6,0-113.2,0-169.7c0-8.6,0-8.6,8.9-8.6
					c5.5,0,11.1,0,17.4,0c0,5.5,0,10.3,0,16.7c3-2,4.8-3,6.5-4.2c32-23.5,93.1-16.5,109.7,38.2c0.6,1.8,0.6,4.9-0.5,6
					c-7,6.9-14.4,13.3-21.9,20.1c-0.1-1.4-0.3-3.5-0.3-5.5c-0.7-25.2-18.5-44.4-42.6-46c-25-1.7-46.2,15.1-50.1,39.7
					c-3.8,24.2,11.4,48.5,35,53.8c18,4.1,34.1-0.4,47.3-14c27.7-28.6,55.3-57.2,83.2-85.7C307.5,73.1,321.6,66.2,339.9,66.2z"/>
				<path class="st1" d="M296.1,133.8c0,24.5,0.1,47-0.1,69.5c0,1.5-1.7,4.2-2.7,4.3c-7.5,0.4-15,0.2-23.1,0.2
					c0-15.2,0-29.5,0.1-43.7c0-1.2,0.5-2.8,1.3-3.7C279.3,151.8,287.1,143.4,296.1,133.8z"/>
				<path class="st1" d="M297,72.3c-8.4,7.7-16.8,15.4-26.3,24.1c0-9.7,0-17.9,0-26.8c8,0,16.1,0,24.1,0
					C295.6,70.5,296.3,71.4,297,72.3z"/>
			</g>
		</g>
	</g>
</g>
</svg>
