<?xml version="1.0" encoding="utf-8"?>
<!-- Generator: Adobe Illustrator 26.0.1, SVG Export Plug-In . SVG Version: 6.00 Build 0)  -->
<svg version="1.1" id="Layer_1" xmlns="http://www.w3.org/2000/svg" xmlns:xlink="http://www.w3.org/1999/xlink" x="0px" y="0px"
	 viewBox="0 0 895.7 319.7" style="enable-background:new 0 0 895.7 319.7;" xml:space="preserve">
<style type="text/css">
	.st0{fill:#4DC8EB;}
	.st1{fill:#FFFFFF;}
	.st2{fill:#E7087C;}
	.st3{fill:#00AED3;}
	.st4{fill:#0294B3;}
	.st5{stroke:#000000;stroke-miterlimit:10;}
	.st6{fill:#F99C1C;}
	.st7{fill:#EF3F5D;}
	.st8{fill:#4685C5;}
	.st9{fill:#DB6A2F;}
</style>
<g>
	<g>
		<path class="st1" d="M370.3,54.9c0,9.9,0.4,18.7-0.3,27.4c-0.1,1.9-3.9,5-6.1,5.1c-14.4,0.2-25,7.2-34.3,17.4
			c-33.7,36.8-67.2,73.7-101.2,110.2c-33.2,35.7-89.5,40.5-129.1,11.6c-0.9-0.7-1.9-1.1-4.4-2.5c0,26.1,0,51,0,77.2
			c-11.1,0-21,0.2-30.8-0.2c-1.4-0.1-3.4-2.7-4-4.4c-0.7-2.4-0.3-5.2-0.3-7.9c0-74.2,0-148.5,0-222.7c0-11.3,0-11.3,11.7-11.3
			c7.3,0,14.5,0,22.8,0c0,7.2,0,13.5,0,21.9c4-2.6,6.3-4,8.5-5.5c42-30.8,122.1-21.6,143.9,50.1c0.7,2.4,0.8,6.5-0.7,7.9
			c-9.2,9-18.8,17.4-28.7,26.4c-0.1-1.9-0.3-4.5-0.4-7.2c-0.9-33-24.2-58.2-55.9-60.4c-32.8-2.2-60.7,19.8-65.8,52.1
			c-5,31.8,15,63.6,45.9,70.6c23.6,5.3,44.8-0.5,62-18.3c36.3-37.5,72.6-75.1,109.1-112.4C327.8,64.1,346.3,54.9,370.3,54.9z"/>
		<path class="st1" d="M312.8,143.6c0,32.1,0.1,61.6-0.2,91.1c0,2-2.2,5.5-3.5,5.6c-9.8,0.5-19.7,0.3-30.3,0.3c0-20,0-38.7,0.1-57.4
			c0-1.6,0.6-3.6,1.7-4.8C290.8,167.3,301.1,156.2,312.8,143.6z"/>
		<path class="st1" d="M314.1,63c-11,10.1-22.1,20.2-34.5,31.7c0-12.7,0-23.5,0-35.1c10.5,0,21.1,0,31.7,0
			C312.2,60.6,313.1,61.8,314.1,63z"/>
	</g>
</g>
<g>
	<g>
		<path class="st1" d="M369.1,204.3c2.8,0,5.4,0.8,7.8,2.4c2.4,1.6,4.4,3.8,5.9,6.5c1.5,2.7,2.2,5.8,2.2,9.1c0,3.3-0.7,6.3-2.2,9
			c-1.5,2.7-3.4,4.9-5.9,6.5c-2.4,1.6-5,2.4-7.8,2.4h-14.7l0.8-1.4v16.5c0,1.4-0.4,2.5-1.3,3.5c-0.9,0.9-2,1.4-3.4,1.4
			c-1.3,0-2.4-0.5-3.3-1.4c-0.9-0.9-1.3-2.1-1.3-3.5v-46.2c0-1.4,0.5-2.5,1.4-3.5c0.9-0.9,2.1-1.4,3.5-1.4H369.1z M369.1,231.1
			c1,0,2-0.4,3-1.3c1-0.9,1.8-2,2.4-3.3s1-2.8,1-4.3c0-1.5-0.3-3-1-4.3c-0.6-1.3-1.4-2.4-2.4-3.2c-1-0.8-1.9-1.2-3-1.2h-14.9l1-1.4
			v20.4l-0.9-1.3H369.1z"/>
		<path class="st1" d="M398.1,260.2c-1.4,0-2.5-0.5-3.4-1.4c-0.9-0.9-1.4-2.1-1.4-3.5v-33c0-1.4,0.5-2.5,1.4-3.5
			c0.9-0.9,2-1.4,3.4-1.4c1.4,0,2.5,0.5,3.4,1.4c0.9,0.9,1.4,2.1,1.4,3.5v7.5l-0.6-5.4c0.6-1.3,1.3-2.4,2.3-3.4c0.9-1,2-1.8,3.2-2.5
			c1.2-0.7,2.4-1.2,3.8-1.5c1.3-0.3,2.7-0.5,4-0.5c1.6,0,2.9,0.5,4,1.4c1.1,0.9,1.6,2,1.6,3.2c0,1.8-0.5,3-1.4,3.8
			c-0.9,0.8-1.9,1.2-3,1.2c-1,0-1.9-0.2-2.8-0.6c-0.8-0.4-1.8-0.6-2.8-0.6c-1,0-1.9,0.2-2.9,0.7c-1,0.5-1.9,1.2-2.7,2.1
			c-0.8,1-1.5,2.1-2,3.6c-0.5,1.4-0.8,3.1-0.8,5v18.9c0,1.4-0.5,2.5-1.4,3.5C400.7,259.7,399.5,260.2,398.1,260.2z"/>
		<path class="st1" d="M448.1,261c-4.5,0-8.5-0.9-11.8-2.8c-3.3-1.9-5.9-4.5-7.7-7.7c-1.8-3.2-2.7-6.9-2.7-11c0-4.8,1-8.9,2.9-12.3
			c1.9-3.4,4.5-6,7.6-7.8c3.1-1.8,6.5-2.7,10-2.7c2.7,0,5.3,0.6,7.7,1.7c2.4,1.1,4.6,2.6,6.4,4.6c1.9,1.9,3.3,4.2,4.4,6.7
			c1.1,2.6,1.6,5.3,1.6,8.1c-0.1,1.3-0.6,2.3-1.5,3.1c-1,0.8-2.1,1.2-3.4,1.2h-30.5l-2.4-8h29.3l-1.8,1.6v-2.2
			c-0.1-1.5-0.7-2.9-1.6-4.2c-1-1.2-2.2-2.2-3.7-2.9c-1.5-0.7-3-1.1-4.7-1.1c-1.6,0-3.1,0.2-4.5,0.6c-1.4,0.4-2.6,1.1-3.6,2.2
			c-1,1-1.8,2.4-2.4,4.1c-0.6,1.7-0.9,3.9-0.9,6.5c0,2.9,0.6,5.3,1.8,7.3c1.2,2,2.7,3.5,4.6,4.6c1.9,1,3.9,1.6,6,1.6
			c2,0,3.5-0.2,4.7-0.5c1.2-0.3,2.1-0.7,2.8-1.2c0.7-0.5,1.4-0.8,2-1.2c1-0.5,1.9-0.7,2.7-0.7c1.2,0,2.1,0.4,2.9,1.2
			c0.8,0.8,1.2,1.7,1.2,2.8c0,1.4-0.7,2.7-2.2,3.9c-1.4,1.2-3.3,2.2-5.8,3.1C453.4,260.6,450.8,261,448.1,261z"/>
		<path class="st1" d="M497.6,216.7c4.3,0,7.4,1,9.4,3.1c2,2.1,3.4,4.7,4,7.9l-1.4-0.7l0.6-1.3c0.6-1.2,1.6-2.5,3-4
			c1.3-1.4,2.9-2.6,4.8-3.6c1.9-1,4-1.5,6.4-1.5c3.8,0,6.7,0.8,8.7,2.5c2,1.7,3.4,3.8,4.1,6.6c0.7,2.7,1.1,5.8,1.1,9.1v20.4
			c0,1.4-0.5,2.5-1.4,3.5c-0.9,0.9-2.1,1.4-3.4,1.4c-1.4,0-2.5-0.5-3.4-1.4c-0.9-0.9-1.4-2.1-1.4-3.5v-20.4c0-1.8-0.2-3.3-0.6-4.8
			c-0.4-1.4-1.2-2.5-2.3-3.4c-1.1-0.9-2.7-1.3-4.8-1.3c-2,0-3.8,0.4-5.2,1.3c-1.4,0.9-2.5,2-3.2,3.4c-0.7,1.4-1.1,3-1.1,4.8v20.4
			c0,1.4-0.5,2.5-1.4,3.5c-0.9,0.9-2.1,1.4-3.4,1.4c-1.4,0-2.5-0.5-3.4-1.4c-0.9-0.9-1.4-2.1-1.4-3.5v-20.4c0-1.8-0.2-3.3-0.6-4.8
			c-0.4-1.4-1.2-2.5-2.3-3.4c-1.1-0.9-2.7-1.3-4.8-1.3c-2,0-3.8,0.4-5.2,1.3c-1.4,0.9-2.5,2-3.2,3.4c-0.7,1.4-1.1,3-1.1,4.8v20.4
			c0,1.4-0.5,2.5-1.4,3.5c-0.9,0.9-2.1,1.4-3.4,1.4c-1.4,0-2.5-0.5-3.4-1.4c-0.9-0.9-1.4-2.1-1.4-3.5v-33c0-1.4,0.5-2.5,1.4-3.5
			c0.9-0.9,2-1.4,3.4-1.4c1.4,0,2.5,0.5,3.4,1.4c0.9,0.9,1.4,2.1,1.4,3.5v3.4l-1.2-0.2c0.5-0.9,1.1-1.9,2-2.9c0.9-1,1.9-2,3.1-2.9
			c1.2-0.9,2.6-1.6,4.1-2.2C494.2,216.9,495.8,216.7,497.6,216.7z"/>
		<path class="st1" d="M577.7,260.2c-1.5,0-2.8-0.5-4-1.4c-1.2-0.9-1.8-2.1-1.8-3.5v-46.2c0-1.4,0.5-2.5,1.4-3.5
			c0.9-0.9,2.1-1.4,3.5-1.4h23c2.8,0,5.4,0.7,7.8,2.2c2.4,1.5,4.4,3.5,5.9,6.1c1.5,2.6,2.2,5.6,2.2,8.9c0,2-0.4,4-1.2,5.9
			c-0.8,1.9-1.9,3.6-3.4,5.2c-1.4,1.5-3,2.7-4.8,3.6l0.1-1.8c1.5,0.8,2.7,1.7,3.7,2.8c1,1.1,1.8,2.3,2.3,3.5c0.6,1.3,0.9,2.6,1,4
			c0.2,1.3,0.4,2.5,0.4,3.5c0.1,1,0.2,1.9,0.5,2.6c0.2,0.7,0.7,1.2,1.4,1.6c1.2,0.7,1.9,1.7,2.2,3c0.3,1.3,0,2.5-0.9,3.5
			c-0.6,0.7-1.3,1.1-2.2,1.3c-0.9,0.2-1.8,0.2-2.7,0s-1.7-0.4-2.2-0.8c-0.9-0.5-1.8-1.3-2.7-2.4c-0.9-1-1.6-2.4-2.2-4.2
			c-0.6-1.8-0.8-4-0.8-6.8c0-0.9-0.2-1.7-0.5-2.5c-0.3-0.8-0.8-1.4-1.4-2c-0.6-0.6-1.3-1-2.2-1.3c-0.9-0.3-2-0.4-3.2-0.4h-16.1
			l1.2-1.8v17.3c0,1.4-0.4,2.5-1.1,3.5C580.1,259.7,579,260.2,577.7,260.2z M580.8,231.6h18.6c1,0,1.9-0.4,2.8-1.3
			c0.9-0.9,1.7-2.1,2.2-3.6s0.9-3.2,0.9-5c0-2.3-0.6-4.3-1.9-5.9c-1.3-1.6-2.6-2.4-4-2.4H581l1-2.6v22.6L580.8,231.6z"/>
		<path class="st1" d="M661,216.7c1.4,0,2.5,0.5,3.4,1.4c0.9,0.9,1.4,2.1,1.4,3.5v33.8c0,1.4-0.5,2.5-1.4,3.5
			c-0.9,0.9-2.1,1.4-3.4,1.4c-1.4,0-2.5-0.5-3.4-1.4c-0.9-0.9-1.4-2.1-1.4-3.5v-3.9l1.8,0.7c0,0.7-0.4,1.5-1.1,2.5
			c-0.7,1-1.8,2-3,2.9c-1.3,1-2.8,1.8-4.5,2.4c-1.7,0.7-3.6,1-5.6,1c-3.7,0-7-0.9-10-2.8c-3-1.9-5.3-4.5-7.1-7.8
			c-1.7-3.3-2.6-7.1-2.6-11.5c0-4.4,0.9-8.2,2.6-11.5c1.7-3.3,4.1-5.9,7-7.8c2.9-1.9,6.2-2.8,9.7-2.8c2.3,0,4.4,0.3,6.3,1
			c1.9,0.7,3.6,1.6,5,2.6c1.4,1.1,2.5,2.1,3.3,3.2c0.8,1.1,1.2,2,1.2,2.8l-2.9,1v-5.8c0-1.4,0.5-2.5,1.4-3.5
			C658.5,217.1,659.6,216.7,661,216.7z M644.9,252.2c2.3,0,4.4-0.6,6.2-1.8c1.8-1.2,3.1-2.8,4.1-4.8c1-2,1.5-4.3,1.5-6.8
			c0-2.6-0.5-4.8-1.5-6.9c-1-2-2.4-3.6-4.1-4.8c-1.8-1.2-3.8-1.8-6.2-1.8c-2.3,0-4.3,0.6-6.1,1.8c-1.8,1.2-3.1,2.8-4.1,4.8
			c-1,2-1.5,4.3-1.5,6.9c0,2.5,0.5,4.8,1.5,6.8c1,2,2.4,3.6,4.1,4.8C640.6,251.6,642.6,252.2,644.9,252.2z"/>
		<path class="st1" d="M698.6,216.7c3.8,0,6.7,0.8,8.7,2.5c2,1.7,3.4,3.8,4.1,6.6c0.7,2.7,1.1,5.8,1.1,9.1v20.4
			c0,1.4-0.5,2.5-1.4,3.5c-0.9,0.9-2.1,1.4-3.4,1.4c-1.4,0-2.5-0.5-3.4-1.4c-0.9-0.9-1.4-2.1-1.4-3.5v-20.4c0-1.8-0.2-3.3-0.6-4.8
			c-0.4-1.4-1.2-2.5-2.3-3.4c-1.1-0.9-2.7-1.3-4.8-1.3c-2,0-3.8,0.4-5.2,1.3c-1.4,0.9-2.5,2-3.2,3.4c-0.7,1.4-1.1,3-1.1,4.8v20.4
			c0,1.4-0.5,2.5-1.4,3.5c-0.9,0.9-2.1,1.4-3.4,1.4c-1.4,0-2.5-0.5-3.4-1.4c-0.9-0.9-1.4-2.1-1.4-3.5V206c0-1.4,0.5-2.5,1.4-3.5
			c0.9-0.9,2-1.4,3.4-1.4c1.4,0,2.5,0.5,3.4,1.4c0.9,0.9,1.4,2.1,1.4,3.5v19.8l-1.2-0.2c0.5-0.9,1.1-1.9,2-2.9c0.9-1,1.9-2,3.1-2.9
			c1.2-0.9,2.6-1.6,4.1-2.2C695.3,216.9,696.9,216.7,698.6,216.7z"/>
		<path class="st1" d="M764.4,238.9c0,4.4-1,8.2-2.9,11.5c-1.9,3.3-4.6,5.9-7.8,7.8c-3.3,1.9-6.9,2.8-11,2.8c-4,0-7.7-0.9-11-2.8
			c-3.3-1.9-5.9-4.5-7.8-7.8c-1.9-3.3-2.9-7.2-2.9-11.5c0-4.4,1-8.2,2.9-11.5c1.9-3.3,4.6-5.9,7.8-7.8c3.3-1.9,6.9-2.8,11-2.8
			c4,0,7.7,0.9,11,2.8c3.3,1.9,5.9,4.5,7.8,7.8C763.5,230.7,764.4,234.5,764.4,238.9z M754.9,238.9c0-2.7-0.5-5.1-1.6-7.1
			c-1.1-2-2.6-3.6-4.4-4.7s-3.9-1.7-6.1-1.7s-4.3,0.6-6.1,1.7s-3.3,2.7-4.4,4.7c-1.1,2-1.6,4.4-1.6,7.1c0,2.7,0.5,5,1.6,7
			c1.1,2,2.6,3.6,4.4,4.7c1.8,1.1,3.9,1.7,6.1,1.7s4.3-0.6,6.1-1.7c1.8-1.1,3.3-2.7,4.4-4.7C754.3,243.9,754.9,241.5,754.9,238.9z"
			/>
		<path class="st1" d="M814.3,238.9c0,4.4-1,8.2-2.9,11.5c-1.9,3.3-4.6,5.9-7.8,7.8c-3.3,1.9-6.9,2.8-11,2.8c-4,0-7.7-0.9-11-2.8
			c-3.3-1.9-5.9-4.5-7.8-7.8c-1.9-3.3-2.9-7.2-2.9-11.5c0-4.4,1-8.2,2.9-11.5c1.9-3.3,4.6-5.9,7.8-7.8c3.3-1.9,6.9-2.8,11-2.8
			c4,0,7.7,0.9,11,2.8c3.3,1.9,5.9,4.5,7.8,7.8C813.3,230.7,814.3,234.5,814.3,238.9z M804.7,238.9c0-2.7-0.5-5.1-1.6-7.1
			c-1.1-2-2.6-3.6-4.4-4.7s-3.9-1.7-6.1-1.7s-4.3,0.6-6.1,1.7s-3.3,2.7-4.4,4.7c-1.1,2-1.6,4.4-1.6,7.1c0,2.7,0.5,5,1.6,7
			c1.1,2,2.6,3.6,4.4,4.7c1.8,1.1,3.9,1.7,6.1,1.7s4.3-0.6,6.1-1.7c1.8-1.1,3.3-2.7,4.4-4.7C804.2,243.9,804.7,241.5,804.7,238.9z"
			/>
		<path class="st1" d="M833.1,255.3c0,1.4-0.5,2.5-1.4,3.5c-0.9,0.9-2.1,1.4-3.5,1.4c-1.3,0-2.5-0.5-3.4-1.4
			c-0.9-0.9-1.4-2.1-1.4-3.5V206c0-1.4,0.5-2.5,1.4-3.5c0.9-0.9,2.1-1.4,3.5-1.4c1.4,0,2.5,0.5,3.4,1.4c0.9,0.9,1.3,2.1,1.3,3.5
			V255.3z"/>
	</g>
</g>
</svg>
